<svg viewBox="0 0 32 32" xmlns="http://www.w3.org/2000/svg" aria-hidden="true" role="presentation" focusable="false" style="display: block; height: 24px; width: 24px; fill: currentcolor;"><path d="m24.3334 1.66675c1.0543745 0 1.9181663.81587127 1.9945143 1.85073677l.0054857.14926323-.00065 24.666 3.00065.00075v2h-26.66665v-2l3-.00075v-24.666c0-1.05436681.81587301-1.91816558 1.850737-1.99451429l.149263-.00548571zm-4.00065 2h-12.666l-.00075 24.66625 12.66675-.00025zm4.00065 0h-2.00065v24.666l2.00025.00025zm-7.0001 11.00002c.7363778 0 1.33333.5969522 1.33333 1.33333s-.5969522 1.33333-1.33333 1.33333-1.33333-.5969522-1.33333-1.33333.5969522-1.33333 1.33333-1.33333z"></path></svg>