<svg viewBox="0 0 32 32" xmlns="http://www.w3.org/2000/svg" aria-hidden="true" role="presentation" focusable="false" style="display: block; height: 24px; width: 24px; fill: currentcolor;"><path d="M26 1a5 5 0 0 1 5 5c0 6.389-1.592 13.187-4 14.693V31h-2V20.694c-2.364-1.478-3.942-8.062-3.998-14.349L21 6l.005-.217A5 5 0 0 1 26 1zm-9 0v18.118c2.317.557 4 3.01 4 5.882 0 3.27-2.183 6-5 6s-5-2.73-5-6c0-2.872 1.683-5.326 4-5.882V1zM2 1h1c4.47 0 6.934 6.365 6.999 18.505L10 21H3.999L4 31H2zm14 20c-1.602 0-3 1.748-3 4s1.398 4 3 4 3-1.748 3-4-1.398-4-3-4zM4 3.239V19h3.995l-.017-.964-.027-.949C7.673 9.157 6.235 4.623 4.224 3.364l-.12-.07zm19.005 2.585L23 6l.002.31c.045 4.321 1.031 9.133 1.999 11.39V3.17a3.002 3.002 0 0 0-1.996 2.654zm3.996-2.653v14.526C27.99 15.387 29 10.4 29 6a3.001 3.001 0 0 0-2-2.829z"></path></svg>