<svg xmlns="http://www.w3.org/2000/svg" viewBox="0 0 32 32" aria-hidden="true" role="presentation" focusable="false" style="display: block; height: 24px; width: 24px; fill: currentcolor;"><path d="M26 19a1 1 0 1 1-2 0 1 1 0 0 1 2 0zM7 18a1 1 0 1 0 0 2 1 1 0 0 0 0-2zm20.693-5l.42 1.119C29.253 15.036 30 16.426 30 18v9c0 1.103-.897 2-2 2h-2c-1.103 0-2-.897-2-2v-2H8v2c0 1.103-.897 2-2 2H4c-1.103 0-2-.897-2-2v-9c0-1.575.746-2.965 1.888-3.882L4.308 13H2v-2h3v.152l1.82-4.854A2.009 2.009 0 0 1 8.693 5h14.614c.829 0 1.58.521 1.873 1.297L27 11.151V11h3v2h-2.307zM6 25H4v2h2v-2zm22 0h-2v2h2v-2zm0-2v-5c0-1.654-1.346-3-3-3H7c-1.654 0-3 1.346-3 3v5h24zm-3-10h.557l-2.25-6H8.693l-2.25 6H25zm-15 7h12v-2H10v2z"></path></svg>