<svg viewBox="0 0 32 32" xmlns="http://www.w3.org/2000/svg" aria-hidden="true" role="presentation" focusable="false" style="display: block; height: 24px; width: 24px; fill: currentcolor;"><path d="m15.9999 20.33323c2.0250459 0 3.66667 1.6416241 3.66667 3.66667s-1.6416241 3.66667-3.66667 3.66667-3.66667-1.6416241-3.66667-3.66667 1.6416241-3.66667 3.66667-3.66667zm0 2c-.9204764 0-1.66667.7461936-1.66667 1.66667s.7461936 1.66667 1.66667 1.66667 1.66667-.7461936 1.66667-1.66667-.7461936-1.66667-1.66667-1.66667zm.0001-7.33323c3.5168171 0 6.5625093 2.0171251 8.0432368 4.9575354l-1.5143264 1.5127043c-1.0142061-2.615688-3.5549814-4.4702397-6.5289104-4.4702397s-5.5147043 1.8545517-6.52891042 4.4702397l-1.51382132-1.5137072c1.48091492-2.939866 4.52631444-4.9565325 8.04273174-4.9565325zm.0001-5.3332c4.9804693 0 9.3676401 2.540213 11.9365919 6.3957185l-1.4470949 1.4473863c-2.1746764-3.5072732-6.0593053-5.8431048-10.489497-5.8431048s-8.31482064 2.3358316-10.48949703 5.8431048l-1.44709488-1.4473863c2.56895177-3.8555055 6.95612261-6.3957185 11.93659191-6.3957185zm-.0002-5.3336c6.4510616 0 12.1766693 3.10603731 15.7629187 7.9042075l-1.4304978 1.4309874c-3.2086497-4.44342277-8.4328305-7.3351949-14.3324209-7.3351949-5.8991465 0-11.12298511 2.89133703-14.33169668 7.334192l-1.43047422-1.4309849c3.58629751-4.79760153 9.31155768-7.9032071 15.7621709-7.9032071z"></path></svg>