<svg viewBox="0 0 32 32" xmlns="http://www.w3.org/2000/svg" aria-hidden="true" role="presentation" focusable="false" style="display: block; height: 24px; width: 24px; fill: currentcolor;"><path d="M16 1a5 5 0 0 1 5 5 5 5 0 0 1 0 10 5.002 5.002 0 0 1-4 4.9v4.287C18.652 23.224 21.153 22 23.95 22a8.94 8.94 0 0 1 3.737.814l.313.15.002 2.328A6.963 6.963 0 0 0 23.95 24c-3.542 0-6.453 2.489-6.93 5.869l-.02.15-.006.098a1 1 0 0 1-.876.876L16 31a1 1 0 0 1-.974-.77l-.02-.124C14.635 26.623 11.615 24 7.972 24a6.963 6.963 0 0 0-3.97 1.234l.002-2.314c1.218-.6 2.57-.92 3.968-.92 2.818 0 5.358 1.24 7.028 3.224V20.9a5.002 5.002 0 0 1-3.995-4.683L11 16l-.217-.005a5 5 0 0 1 0-9.99L11 6l.005-.217A5 5 0 0 1 16 1zm2.864 14.1c-.811.567-1.799.9-2.864.9s-2.053-.333-2.864-.9l-.062.232a3 3 0 1 0 5.851.001zM11 8a3 3 0 1 0 .667 5.926l.234-.062A4.977 4.977 0 0 1 11 11c0-1.065.333-2.053.9-2.864l-.232-.062A3.013 3.013 0 0 0 11 8zm10 0c-.228 0-.45.025-.667.074l-.234.062C20.667 8.947 21 9.935 21 11a4.977 4.977 0 0 1-.9 2.864l.232.062A3 3 0 1 0 21 8zm-5 0a3 3 0 1 0 0 6 3 3 0 0 0 0-6zm0-5a3 3 0 0 0-2.926 3.667l.062.234C13.947 6.333 14.935 6 16 6s2.053.333 2.864.9l.062-.232A3 3 0 0 0 16 3z"></path></svg>