<svg viewBox="0 0 32 32" xmlns="http://www.w3.org/2000/svg" aria-hidden="true" role="presentation" focusable="false" style="display: block; height: 24px; width: 24px; fill: currentcolor;"><path d="m26.2875958 2c1.4943151.00218728 2.7591731 1.1037772 2.9663548 2.58389031.4975641 3.56108628.7460494 7.36641109.7460494 11.41610969s-.2484853 7.8550234-.7460839 11.4163568c-.1988613 1.4206714-1.3725089 2.4927235-2.7894512 2.5781497l-.1783321.0054935h-20.57372863c-1.49431506-.0021873-2.7591731-1.1037772-2.96635481-2.5838903-.49756403-3.5610863-.74604936-7.3664111-.74604936-11.4161097s.24848533-7.85502341.74608392-11.41635683c.19886126-1.42067133 1.37250888-2.49272345 2.78945123-2.57814972l.17833204-.00549345zm-.001463 1.99999893h-20.57080259c-.49804876.00072866-.919536.36781024-.98852197.86064804-.48434104 3.46644876-.72680824 7.17961153-.72680824 11.13935193 0 3.9597426.2424672 7.6729054.72677368 11.139107.06371126.4551553.42774918.8029468.87395616.8543314l.11313735.0065616h20.57080261c.4980488-.0007265.919536-.3678081.988522-.8606459.484341-3.4664487.7268082-7.1796115.7268082-11.1393541 0-3.9597404-.2424672-7.67290317-.7267737-11.13910479-.0690205-.49308494-.4905077-.86016652-.9870935-.86089518zm-10.2861328 3.00000107c4.9705627 0 9 4.0294373 9 9s-4.0294373 9-9 9-9-4.0294373-9-9 4.0294373-9 9-9zm-5.8414878 7.4999981c-.34108957-.0001654-.67972606.0242467-1.01356612.0725599-.09481995.4612974-.14494608.9385159-.14494608 1.4274401 0 3.8659951 3.1340068 7 7 7 2.7319686 0 5.0983993-1.5650514 6.2516347-3.8475004-.2599201.0223771-.5214932.0336332-.7841237.0335052-2.2620527-.0011072-4.4437323-.8444711-6.1250979-2.4078908l-.2367463-.2282308c-1.3302626-1.3311149-3.1018689-2.0498832-4.9471546-2.0498832zm5.8414878-5.4999981c-2.5924559 0-4.8557544 1.4092904-6.06558041 3.5035562l.22458041-.0035562c2.2624645 0 4.4444831.8435532 6.1243595 2.4073778l.2365208.22829c1.3314314 1.3305789 3.1034818 2.049432 4.9486075 2.0503351.4925113.0002394.9799732-.0508503 1.4553384-.1512223.0503426-.3388527.0761738-.6838001.0761738-1.0347806 0-3.8659932-3.1340068-7-7-7zm-9-3c.55228475 0 1 .44771525 1 1s-.44771525 1-1 1-1-.44771525-1-1 .44771525-1 1-1z"></path></svg>