<svg viewBox="0 0 32 32" xmlns="http://www.w3.org/2000/svg" aria-hidden="true" role="presentation" focusable="false" style="display: block; height: 24px; width: 24px; fill: currentcolor;"><path d="M17 1v4.03l4.026-2.324 1 1.732L17 7.339v6.928l6-3.464V5h2v4.648l3.49-2.014 1 1.732L26 11.381l4.026 2.325-1 1.732L24 12.535l-6 3.464 6 3.465 5.026-2.902 1 1.732L26 20.618l3.49 2.016-1 1.732L25 22.351V27h-2v-5.804l-6-3.465v6.929l5.026 2.902-1 1.732L17 26.97V31h-2v-4.031l-4.026 2.325-1-1.732L15 24.66v-6.929l-6 3.464V27H7v-4.65l-3.49 2.016-1-1.732 3.489-2.016-4.025-2.324 1-1.732 5.025 2.901 6-3.464-6-3.464-5.025 2.903-1-1.732L6 11.38 2.51 9.366l1-1.732L7 9.648V5h2v5.803l6 3.464V7.339L9.974 4.438l1-1.732L15 5.03V1z"></path></svg>