<svg viewBox="0 0 32 32" xmlns="http://www.w3.org/2000/svg" aria-hidden="true" role="presentation" focusable="false" style="display: block; height: 24px; width: 24px; fill: currentcolor;"><path d="M7.5 2a4.5 4.5 0 0 1 4.473 4H14v2H8V6h1.95a2.5 2.5 0 0 0-4.945.336L5 6.5V16h26v2h-2v5a5.001 5.001 0 0 1-3 4.584V30h-2v-2H8v2H6v-2.416a5.002 5.002 0 0 1-2.995-4.349L3 23v-5H1v-2h2V6.5A4.5 4.5 0 0 1 7.5 2zm19.499 16h-22L5 23a3 3 0 0 0 2.65 2.98l.174.015L8 26h16a3 3 0 0 0 2.995-2.824L27 23z"></path></svg>