<?xml version="1.0" encoding="UTF-8" standalone="no"?>
<svg
   xmlns:dc="http://purl.org/dc/elements/1.1/"
   xmlns:cc="http://creativecommons.org/ns#"
   xmlns:rdf="http://www.w3.org/1999/02/22-rdf-syntax-ns#"
   xmlns:svg="http://www.w3.org/2000/svg"
   xmlns="http://www.w3.org/2000/svg"
   xmlns:sodipodi="http://sodipodi.sourceforge.net/DTD/sodipodi-0.dtd"
   xmlns:inkscape="http://www.inkscape.org/namespaces/inkscape"
   inkscape:version="1.0rc1 (09960d6, 2020-04-09)"
   sodipodi:docname="Instagram_2016_wordmark.svg"
   id="svg835"
   width="1000.0005"
   height="283.677"
   version="1.1">
  <metadata
     id="metadata841">
    <rdf:RDF>
      <cc:Work
         rdf:about="">
        <dc:format>image/svg+xml</dc:format>
        <dc:type
           rdf:resource="http://purl.org/dc/dcmitype/StillImage" />
        <dc:title></dc:title>
      </cc:Work>
    </rdf:RDF>
  </metadata>
  <defs
     id="defs839" />
  <sodipodi:namedview
     inkscape:current-layer="svg835"
     inkscape:window-maximized="0"
     inkscape:window-y="23"
     inkscape:window-x="0"
     inkscape:cy="141.8385"
     inkscape:cx="500.00028"
     inkscape:zoom="0.84343434"
     fit-margin-bottom="0"
     fit-margin-right="0"
     fit-margin-left="0"
     fit-margin-top="0"
     showgrid="false"
     id="namedview837"
     inkscape:window-height="698"
     inkscape:window-width="1558"
     inkscape:pageshadow="2"
     inkscape:pageopacity="0"
     guidetolerance="10"
     gridtolerance="10"
     objecttolerance="10"
     borderopacity="1"
     bordercolor="#666666"
     pagecolor="#ffffff" />
  <path
     inkscape:connector-curvature="0"
     id="path833"
     d="M 51.466896,0.99464468 C 30.999421,9.5620367 8.4988731,33.765987 1.3924571,64.147187 c -8.99971,38.494173 28.4522969,54.772143 31.5241289,49.434793 3.615517,-6.27144 -6.71096,-8.39227 -8.836583,-28.364795 -2.747212,-25.796243 9.24542,-54.620631 24.338545,-67.267932 2.805546,-2.349738 2.672086,0.920704 2.672086,6.97005 0,10.817636 -0.597725,107.928267 -0.597725,128.195367 0,27.42389 -1.132697,36.08383 -3.167033,44.641 -2.06123,8.67181 -5.37498,14.53125 -2.864005,16.78832 2.805419,2.52473 14.783531,-3.48067 21.717849,-13.15879 8.315246,-11.60741 11.225968,-25.54726 11.748567,-40.68571 0.631184,-18.24892 0.604291,-47.20615 0.631184,-63.723132 C 78.584721,81.827803 78.814647,37.469509 78.293942,10.802942 78.166291,4.2621827 60.02646,-2.6000383 51.465886,0.98669068 M 778.2653,129.33647 c -0.65984,14.25702 -3.81577,25.40079 -7.73254,33.26112 -7.58268,15.21711 -23.31696,19.94222 -29.99749,-1.93295 -3.64065,-11.9242 -3.81072,-31.83877 -1.19331,-48.47862 2.66439,-16.951322 10.10401,-29.753421 22.42315,-28.59888 12.15084,1.141284 17.83832,16.79817 16.50019,45.7487 z m -204.84201,88.4541 c -0.1649,23.68892 -3.89317,44.45917 -11.88821,50.49173 -11.33948,8.55388 -26.58059,2.13749 -23.42466,-15.14856 2.79241,-15.29653 15.99855,-30.91819 35.34494,-50.00537 0,0 0.0404,4.35276 -0.0316,14.6622 z m -3.09696,-88.5921 c -0.69343,12.98531 -4.05983,26.03021 -7.73255,33.40089 -7.58103,15.21699 -23.42971,19.97416 -29.99749,-1.93295 -4.49063,-14.96787 -3.41513,-34.34015 -1.1933,-46.54643 2.8832,-15.837061 9.87181,-30.529431 22.42315,-30.529431 12.20298,0 18.22039,13.387955 16.50019,45.608931 z m -118.66534,-0.19861 c -0.74394,13.75273 -3.42688,25.24928 -7.73242,33.5995 -7.78974,15.11231 -23.2008,19.9051 -29.99749,-1.93295 -4.89973,-15.74691 -3.23168,-37.21831 -1.19343,-48.81713 3.02474,-17.212055 10.59895,-29.41504 22.42328,-28.258731 12.14578,1.186612 18.05031,16.796401 16.50006,45.410321 z m 543.81588,16.06383 c -2.96918,0 -4.3241,3.06047 -5.44506,8.21209 -3.88811,17.91231 -7.97484,21.95686 -13.2449,21.95686 -5.88773,0 -11.17799,-8.86941 -12.53796,-26.62439 -1.06881,-13.96106 -0.89709,-39.66388 0.4697,-65.231336 0.27929,-5.253137 -1.16982,-10.450719 -15.25967,-15.569261 -6.06285,-2.201633 -14.87595,-5.443414 -19.26394,5.148845 -12.39819,29.925012 -17.24918,53.683012 -18.39034,63.334372 -0.0593,0.49949 -0.67158,0.60151 -0.77929,-0.56553 -0.72714,-7.73002 -2.35302,-21.77695 -2.55504,-51.289592 -0.0391,-5.758186 -1.25896,-10.659556 -7.61461,-14.672294 -4.12385,-2.603778 -16.64666,-7.208938 -21.15586,-1.730296 -3.90668,4.480665 -8.43103,16.538827 -13.13215,30.832334 -3.82069,11.617258 -6.48179,19.476068 -6.48179,19.476068 0,0 0.0505,-31.345721 0.096,-43.235701 0.0202,-4.48559 -3.05668,-5.980281 -3.98408,-6.25124 -4.17599,-1.21199 -12.40336,-3.23673 -15.8959,-3.23673 -4.30895,0 -5.36425,2.408577 -5.36425,5.918033 0,0.459468 -0.68004,41.269668 -0.68004,69.806068 0,1.23951 0,2.59191 0.0126,4.02852 -2.38332,13.1156 -10.11246,30.91983 -18.51824,30.91983 -8.41588,0 -12.38644,-7.44341 -12.38644,-41.46323 0,-19.84627 0.59583,-28.47591 0.88876,-42.8299 0.16995,-8.267772 0.49823,-14.616739 0.47967,-16.057516 -0.0619,-4.418292 -7.70212,-6.645177 -11.25703,-7.468154 -3.5717,-0.829921 -6.67548,-1.151385 -9.09921,-1.01338 -3.43029,0.19356 -5.85743,2.444056 -5.85743,5.539373 0,1.65959 0.0189,4.815512 0.0189,4.815512 -4.41829,-6.943029 -11.52458,-11.775461 -16.25271,-13.175834 -12.73481,-3.782057 -26.02352,-0.430933 -36.04671,13.595025 -7.96651,11.144276 -12.76849,23.766324 -14.65876,41.900854 -1.38182,13.25766 -0.93081,26.70181 1.52499,38.07159 -2.96741,12.82949 -8.47648,18.08566 -14.50891,18.08566 -8.75754,0 -15.10651,-14.29439 -14.36926,-39.01589 0.48636,-16.2603 3.74001,-27.67137 7.29656,-44.179896 1.51654,-7.037347 0.28447,-10.721803 -2.80592,-14.253103 -2.83446,-3.238372 -8.87358,-4.892911 -17.55549,-2.857944 -6.18395,1.450878 -15.02558,3.0111 -23.11494,4.20958 0,0 0.48813,-1.947467 0.88876,-5.38104 2.1039,-18.006625 -17.46294,-16.545646 -23.70585,-10.794278 -3.7265,3.433699 -6.26311,7.483431 -7.22586,14.764844 -1.52663,11.555007 7.89745,17.005113 7.89745,17.005113 -3.09203,14.153734 -10.6713,32.643324 -18.4964,46.011074 -4.19102,7.1621 -7.39744,12.46927 -11.53644,18.11092 -0.0152,-2.10075 -0.0265,-4.20125 -0.0341,-6.29215 -0.0947,-29.75684 0.30126,-53.17645 0.47626,-61.617582 0.17007,-8.267646 0.50164,-14.448305 0.48308,-15.889083 -0.0467,-3.23168 -1.93396,-4.452003 -5.85907,-5.9972 -3.4707,-1.366661 -7.57434,-2.312617 -11.83102,-2.64254 -5.37271,-0.419064 -8.60944,2.430546 -8.52535,5.800231 0.0164,0.636235 0.0164,4.542912 0.0164,4.542912 -4.41842,-6.943156 -11.52471,-11.775461 -16.25272,-13.175961 -12.73493,-3.780415 -26.02351,-0.429165 -36.04684,13.595025 -7.96474,11.144277 -13.18088,26.782598 -14.65878,41.762848 -1.37676,13.9617 -1.1226,25.82656 0.75416,35.82122 -2.02486,10.00829 -7.84694,20.47416 -14.42987,20.47416 -8.41587,0 -13.20449,-7.44353 -13.20449,-41.46323 0,-19.84627 0.59583,-28.47591 0.88876,-42.828382 0.16995,-8.267646 0.49823,-14.618254 0.47967,-16.05739 -0.0619,-4.418292 -7.70225,-6.645177 -11.25703,-7.469922 -3.71981,-0.860098 -6.93129,-1.176511 -9.39719,-0.994819 -3.25352,0.242423 -5.54101,3.156049 -5.54101,5.32902 v 5.007431 c -4.4183,-6.943156 -11.52458,-11.775461 -16.25272,-13.175961 -12.7348,-3.780415 -25.9494,-0.375251 -36.04671,13.595025 -6.58457,9.10931 -11.91523,19.208388 -14.65878,41.564238 -0.7928,6.46047 -1.14293,12.51019 -1.09747,18.16484 -2.62575,16.0579 -14.2228,34.56553 -23.70913,34.56553 -5.55112,0 -10.83797,-10.767 -10.83797,-33.71389 0,-30.56644 1.89191,-74.086476 2.21174,-78.280904 0,0 11.98581,-0.203661 14.30701,-0.230681 5.97852,-0.06566 11.3934,0.07576 19.35637,-0.331565 3.99418,-0.203661 7.84189,-14.537572 3.71981,-16.311555 -1.8683,-0.802901 -15.0728,-1.506434 -20.30737,-1.617545 -4.4015,-0.09975 -16.65499,-1.006562 -16.65499,-1.006562 0,0 1.09911,-28.886634 1.35492,-31.9381383 0.21717,-2.543299 -3.07348,-3.852763 -4.96034,-4.647331 -4.58824,-1.940649 -8.69353,-2.869812 -13.55954,-3.87296502 -6.72271,-1.386864 -9.77257,-0.0303 -10.3684,5.64366502 -0.89709,8.6112063 -1.36174,33.8334603 -1.36174,33.8334603 -4.93331,0 -21.78527,-0.964391 -26.72022,-0.964391 -4.58496,0 -9.53356,19.718362 -3.19469,19.960659 7.29315,0.282827 20.00283,0.526892 28.42868,0.781057 0,0 -0.37525,44.237086 -0.37525,57.894356 0,1.45303 0.0126,2.85226 0.0152,4.20996 -4.63723,24.17037 -20.97063,37.22664 -20.97063,37.22664 3.50769,-15.99009 -3.65756,-27.99788 -16.56408,-38.16249 -4.75503,-3.7457 -14.14212,-10.83684 -24.64511,-18.60751 0,0 6.08306,-5.995435 11.47761,-18.057007 3.82246,-8.543781 3.98749,-18.321396 -5.39455,-20.477449 -15.50209,-3.565012 -28.28398,7.819921 -32.09647,19.974168 -2.9539,9.415622 -1.3784,16.402468 4.40832,23.660268 0.42247,0.5303 0.8803,1.07222 1.35328,1.61754 -3.49936,6.7448 -8.30654,15.82558 -12.37812,22.8676 -11.30084,19.5517 -19.8378,35.01667 -26.28942,35.01667 -5.1573,0 -5.08824,-15.70095 -5.08824,-30.4014 0,-12.67307 0.93586,-31.72616 1.6832,-51.452854 0.24735,-6.523966 -3.01463,-10.240492 -8.48317,-13.606768 -3.32259,-2.045068 -10.41385,-6.066139 -14.52078,-6.066139 -6.1472,0 -23.88249,0.836487 -40.64013,49.310171 -2.11186,6.1097 -6.26071,17.24237 -6.26071,17.24237 l 0.35707,-58.291587 c 0,-1.366661 -0.7279,-2.687995 -2.39456,-3.591905 -2.82386,-1.533328 -10.366,-4.669049 -17.07241,-4.669049 -3.19532,0 -4.78989,1.486232 -4.78989,4.448595 l -0.58497,91.197646 c 0,6.92927 0.18068,15.01295 0.86578,18.54855 0.68257,3.54001 1.78838,6.4198 3.15794,8.13317 1.36755,1.7101 2.94949,3.01464 5.55769,3.55302 2.42751,0.49975 15.72002,2.20668 16.41092,-2.87309 0.82778,-6.08773 0.85947,-12.67243 7.83937,-37.23017 10.86624,-38.2332 25.03387,-56.887803 31.69407,-63.512778 1.16452,-1.157951 2.49418,-1.227016 2.43017,0.668179 -0.28434,8.382292 -1.28421,29.327669 -1.95732,47.122179 -1.80416,47.62028 6.85882,56.44676 19.23869,56.44676 9.47118,0 22.82214,-9.41069 37.13408,-33.23245 8.92257,-14.8454 17.5858,-29.40166 23.81014,-39.89291 4.33761,4.01539 9.20527,8.33709 14.06965,12.95387 11.30412,10.72888 15.0156,20.92353 12.55311,30.59496 -1.88345,7.39354 -8.97636,15.01308 -21.60017,7.60717 -3.67941,-2.1606 -5.24986,-3.82991 -8.94947,-6.26576 -1.98774,-1.30858 -5.02258,-1.69974 -6.84202,-0.32891 -4.72637,3.56362 -7.42951,8.09631 -8.97294,13.70803 -1.50139,5.46046 3.96715,8.34694 9.63607,10.87168 4.88117,2.17297 15.37242,4.14203 22.06305,4.36627 26.06897,0.87184 46.9521,-12.58695 61.48955,-47.30387 2.60226,29.98234 13.67747,46.94869 32.91957,46.94869 12.86447,0 25.76253,-16.62847 31.40291,-32.98674 1.61919,6.66815 4.01602,12.46674 7.11134,17.37026 14.82709,23.49208 43.59075,18.43579 58.03918,-1.51275 4.46715,-6.16399 5.14707,-8.37901 5.14707,-8.37901 2.10732,18.8363 17.27608,25.41759 25.96127,25.41759 9.72711,0 19.77051,-4.59847 26.8095,-20.44551 0.82487,1.71982 1.72524,3.36224 2.70832,4.91917 14.82697,23.49209 43.59075,18.43579 58.03905,-1.51274 0.68169,-0.93573 1.27247,-1.78459 1.78926,-2.54646 l 0.42412,12.37256 c 0,0 -8.24252,7.56121 -13.3021,12.1997 -22.26835,20.43035 -39.20099,35.93067 -40.44657,53.98099 -1.59898,23.01569 17.06737,31.56957 31.18916,32.69053 14.99704,1.19015 27.83966,-7.09429 35.7337,-18.68831 6.94303,-10.20489 11.48771,-32.1687 11.15438,-53.86142 -0.13296,-8.68671 -0.35177,-19.73187 -0.52348,-31.57122 7.82673,-9.08911 16.64488,-20.57682 24.76455,-34.02361 8.84845,-14.65411 18.33137,-34.33334 23.18729,-49.648565 0,0 8.23923,0.07071 17.032,-0.504922 2.81262,-0.183459 3.62057,0.390403 3.1005,2.45239 -0.6279,2.491027 -11.10893,42.917527 -1.54356,69.848237 6.54758,18.43579 21.30737,24.36721 30.0581,24.36721 10.24377,0 20.04323,-7.73596 25.2947,-19.22342 0.63283,1.28068 1.29432,2.51994 2.01641,3.664 14.82709,23.49209 43.48986,18.40549 58.03918,-1.51274 3.28382,-4.49393 5.14707,-8.37901 5.14707,-8.37901 3.12234,19.4945 18.28264,25.51682 26.96606,25.51682 9.04542,0 17.62961,-3.70819 24.59461,-20.18793 0.29116,7.25604 0.74899,13.18922 1.47272,15.05979 0.44103,1.14394 3.01123,2.58005 4.88117,3.2736 8.27446,3.06843 16.71395,1.61742 19.83616,0.98624 2.16287,-0.43775 3.84948,-2.17297 4.08004,-6.65377 0.60593,-11.76523 0.23396,-31.53258 3.80062,-46.22331 5.98709,-24.65509 11.5718,-34.21882 14.22115,-38.953526 1.48283,-2.652768 3.15593,-3.090392 3.21653,-0.282827 0.125,5.680663 0.40732,22.362673 2.72676,44.775723 1.70328,16.48403 3.97903,26.22718 5.72776,29.31075 4.99064,8.81815 11.15437,9.2357 16.17367,9.2357 3.19292,0 9.87004,-0.88232 9.27257,-6.49391 -0.29116,-2.73522 0.21881,-19.63932 6.1217,-43.92913 3.8544,-15.86208 10.28076,-30.19447 12.59856,-35.434098 0.85505,-1.932317 1.25227,-0.40909 1.23876,-0.112374 -0.48813,10.923822 -1.58384,46.654252 2.8664,66.195852 6.03255,26.47288 23.48363,29.43524 29.56492,29.43524 12.98227,0 23.59978,-9.87547 27.17654,-35.85997 0.86173,-6.25325 -0.41414,-11.08177 -4.2366,-11.08177"
     style="fill:#000000;stroke-width:1.26262" />
</svg>
