<svg xmlns="http://www.w3.org/2000/svg" version="1.1" viewBox="0 0 36 36"><path class="ytp-svg-shadow" d="M 27.99,18 A 9.99,9.99 0 1 1 8.00,18 9.99,9.99 0 1 1 27.99,18 z"></path><path class="ytp-svg-fill" d="M 18,8 C 12.47,8 8,12.47 8,18 8,23.52 12.47,28 18,28 23.52,28 28,23.52 28,18 28,12.47 23.52,8 18,8 z m -4.68,4 4.53,0 c .35,0 .70,.14 .93,.37 l 5.84,5.84 c .23,.23 .37,.58 .37,.93 0,.35 -0.13,.67 -0.37,.90 L 20.06,24.62 C 19.82,24.86 19.51,25 19.15,25 c -0.35,0 -0.70,-0.14 -0.93,-0.37 L 12.37,18.78 C 12.13,18.54 12,18.20 12,17.84 L 12,13.31 C 12,12.59 12.59,12 13.31,12 z m .96,1.31 c -0.53,0 -0.96,.42 -0.96,.96 0,.53 .42,.96 .96,.96 .53,0 .96,-0.42 .96,-0.96 0,-0.53 -0.42,-0.96 -0.96,-0.96 z" fill-opacity="1"></path><path class="ytp-svg-shadow-fill" d="M 24.61,18.22 18.76,12.37 C 18.53,12.14 18.20,12 17.85,12 H 13.30 C 12.58,12 12,12.58 12,13.30 V 17.85 c 0,.35 .14,.68 .38,.92 l 5.84,5.85 c .23,.23 .55,.37 .91,.37 .35,0 .68,-0.14 .91,-0.38 L 24.61,20.06 C 24.85,19.83 25,19.50 25,19.15 25,18.79 24.85,18.46 24.61,18.22 z M 14.27,15.25 c -0.53,0 -0.97,-0.43 -0.97,-0.97 0,-0.53 .43,-0.97 .97,-0.97 .53,0 .97,.43 .97,.97 0,.53 -0.43,.97 -0.97,.97 z" fill="currentColor" fill-opacity="0.15"></path></svg>