<svg xmlns="http://www.w3.org/2000/svg" version="1.1" viewBox="0 0 36 36"><use class="ytp-svg-shadow" xmlns:ns1="http://www.w3.org/1999/xlink" ns1:href="#ytp-id-34"></use><path d="M7,24 L7,27 L10,27 C10,25.34 8.66,24 7,24 L7,24 Z M7,20 L7,22 C9.76,22 12,24.24 12,27 L14,27 C14,23.13 10.87,20 7,20 L7,20 Z M25,13 L11,13 L11,14.63 C14.96,15.91 18.09,19.04 19.37,23 L25,23 L25,13 L25,13 Z M7,16 L7,18 C11.97,18 16,22.03 16,27 L18,27 C18,20.92 13.07,16 7,16 L7,16 Z M27,9 L9,9 C7.9,9 7,9.9 7,11 L7,14 L9,14 L9,11 L27,11 L27,25 L20,25 L20,27 L27,27 C28.1,27 29,26.1 29,25 L29,11 C29,9.9 28.1,9 27,9 L27,9 Z" fill="currentColor" id="ytp-id-34"></path></svg>