<svg xmlns="http://www.w3.org/2000/svg" version="1.1" viewBox="0 0 24 24"><path d="M22,3h-4l-5,5l3,3l6-6V3L22,3z M10.79,7.79C10.91,7.38,11,6.95,11,6.5C11,4.01,8.99,2,6.5,2S2,4.01,2,6.5S4.01,11,6.5,11 c0.45,0,.88-0.09,1.29-0.21L9,12l-1.21,1.21C7.38,13.09,6.95,13,6.5,13C4.01,13,2,15.01,2,17.5S4.01,22,6.5,22s4.5-2.01,4.5-4.5 c0-0.45-0.09-0.88-0.21-1.29L12,15l6,6h4v-2L10.79,7.79z M6.5,8C5.67,8,5,7.33,5,6.5S5.67,5,6.5,5S8,5.67,8,6.5S7.33,8,6.5,8z M6.5,19C5.67,19,5,18.33,5,17.5S5.67,16,6.5,16S8,16.67,8,17.5S7.33,19,6.5,19z"></path></svg>